<?xml version="1.0" encoding="UTF-8"?>
<svg version="1.1" xmlns="http://www.w3.org/2000/svg" width="225" height="225">
<path d="M0 0 C8.1667273 0.72029953 16.32182809 0.66843138 24.51196289 0.65673828 C26.19156407 0.65741336 27.87116515 0.65838508 29.55076599 0.65963745 C33.04443303 0.66110118 36.53807427 0.65900041 40.03173828 0.65429688 C44.51064603 0.64856033 48.98949436 0.65191156 53.4684 0.65786934 C56.92472281 0.66147697 60.38103143 0.66033612 63.83735466 0.65774155 C65.48998967 0.6570749 67.14262597 0.65789156 68.79525948 0.6602211 C71.09482392 0.66275524 73.39429052 0.65889807 75.69384766 0.65332031 C77.0011232 0.65252472 78.30839874 0.65172913 79.6552887 0.65090942 C82.84630392 0.66975729 82.84630392 0.66975729 85.82055664 -0.47607422 C89.25318923 -0.75566737 92.69028545 -0.75351545 96.13305664 -0.78857422 C97.53974609 -0.83208008 97.53974609 -0.83208008 98.97485352 -0.87646484 C104.89546733 -0.93070584 108.36467571 -0.51035467 112.82055664 3.52392578 C113.15055664 4.51392578 113.48055664 5.50392578 113.82055664 6.52392578 C114.30266602 6.10240234 114.78477539 5.68087891 115.28149414 5.24658203 C115.91313477 4.69873047 116.54477539 4.15087891 117.19555664 3.58642578 C117.82204102 3.04115234 118.44852539 2.49587891 119.09399414 1.93408203 C122.19882781 -0.60176628 124.72744958 -0.80864435 128.72290039 -0.76513672 C133.32915015 -0.13038349 136.80269254 3.17074344 139.82055664 6.52392578 C140.68680664 5.69892578 141.55305664 4.87392578 142.44555664 4.02392578 C144.87688772 2.00069047 145.75203231 1.5346747 149.00805664 1.02392578 C152.18039999 1.58789793 152.91438189 2.00719561 154.82055664 4.52392578 C155.20874023 6.83642578 155.20874023 6.83642578 155.21899414 9.52392578 C155.22286133 10.49330078 155.22672852 11.46267578 155.23071289 12.46142578 C155.21331055 13.97736328 155.21331055 13.97736328 155.19555664 15.52392578 C155.2071582 16.53455078 155.21875977 17.54517578 155.23071289 18.58642578 C155.2268457 19.55580078 155.22297852 20.52517578 155.21899414 21.52392578 C155.21561035 22.41080078 155.21222656 23.29767578 155.20874023 24.21142578 C154.82055664 26.52392578 154.82055664 26.52392578 153.48706055 28.34423828 C151.82055664 29.52392578 151.82055664 29.52392578 148.75805664 29.39892578 C145.82055664 28.52392578 145.82055664 28.52392578 143.82055664 25.52392578 C143.82055664 24.20392578 143.82055664 22.88392578 143.82055664 21.52392578 C143.05743164 21.73017578 142.29430664 21.93642578 141.50805664 22.14892578 C138.82055664 22.52392578 138.82055664 22.52392578 135.82055664 20.52392578 C135.67360352 21.08982422 135.52665039 21.65572266 135.37524414 22.23876953 C134.68602977 24.49257974 133.98452618 26.47189059 132.82055664 28.52392578 C129.82055664 29.71142578 129.82055664 29.71142578 126.82055664 29.52392578 C123.89421203 27.85172886 123.67873805 26.08354173 122.63305664 22.83642578 C122.23086914 21.19673828 122.23086914 21.19673828 121.82055664 19.52392578 C120.83055664 22.49392578 119.84055664 25.46392578 118.82055664 28.52392578 C116.00805664 29.21142578 116.00805664 29.21142578 112.82055664 29.52392578 C109.82735305 27.59972348 108.97068168 24.79735859 107.82055664 21.52392578 C107.46993164 22.45205078 107.11930664 23.38017578 106.75805664 24.33642578 C104.78776297 27.57787667 103.47203906 28.79143834 99.90649414 30.05517578 C92.73403071 31.66696532 86.34787264 30.78758378 79.82055664 27.52392578 C77.37246475 24.13662883 77.75647267 21.31349829 78.19555664 17.27392578 C78.30641602 16.19626953 78.41727539 15.11861328 78.53149414 14.00830078 C78.62688477 13.18845703 78.72227539 12.36861328 78.82055664 11.52392578 C77.17055664 11.52392578 75.52055664 11.52392578 73.82055664 11.52392578 C73.87276367 13.0959375 73.87276367 13.0959375 73.92602539 14.69970703 C73.95416601 16.07859725 73.98146588 17.45750481 74.00805664 18.83642578 C74.03319336 19.52671875 74.05833008 20.21701172 74.08422852 20.92822266 C74.15775028 26.0012244 74.15775028 26.0012244 72.53540039 28.51611328 C69.5844198 30.25040256 67.00393601 29.29029489 63.82055664 28.52392578 C62.28789082 25.45859414 62.71779193 22.25638306 62.75805664 18.89892578 C62.76256836 18.19251953 62.76708008 17.48611328 62.77172852 16.75830078 C62.78351789 15.01347303 62.8014534 13.26868878 62.82055664 11.52392578 C61.50055664 11.52392578 60.18055664 11.52392578 58.82055664 11.52392578 C58.87276367 13.0959375 58.87276367 13.0959375 58.92602539 14.69970703 C58.95416601 16.07859725 58.98146588 17.45750481 59.00805664 18.83642578 C59.03319336 19.52671875 59.05833008 20.21701172 59.08422852 20.92822266 C59.15792625 26.01336643 59.15792625 26.01336643 57.50415039 28.51611328 C55.82055664 29.52392578 55.82055664 29.52392578 52.69555664 29.33642578 C51.27243164 28.93423828 51.27243164 28.93423828 49.82055664 28.52392578 C48.34223404 25.56728059 48.76022881 22.78162841 48.82055664 19.52392578 C47.83055664 20.01892578 47.83055664 20.01892578 46.82055664 20.52392578 C45.11352929 20.59388592 43.40387661 20.60832732 41.69555664 20.58642578 C40.78547852 20.57740234 39.87540039 20.56837891 38.93774414 20.55908203 C37.88973633 20.54167969 37.88973633 20.54167969 36.82055664 20.52392578 C36.88243164 21.45205078 36.94430664 22.38017578 37.00805664 23.33642578 C36.82055664 26.52392578 36.82055664 26.52392578 35.73120117 28.20703125 C32.86013532 30.18588752 30.51647912 29.84393911 27.06274414 29.78173828 C26.06901291 29.77181351 26.06901291 29.77181351 25.0552063 29.76168823 C22.93484903 29.73830686 20.8155388 29.69469812 18.69555664 29.64892578 C8.1492902 29.35205201 8.1492902 29.35205201 -2.35522461 30.07470703 C-5.76037825 30.47469954 -7.97944797 30.46678168 -11.24194336 29.58642578 C-11.99604492 29.39177734 -12.75014648 29.19712891 -13.52709961 28.99658203 C-14.07237305 28.84060547 -14.61764648 28.68462891 -15.17944336 28.52392578 C-16.0818529 23.08035856 -16.39328251 17.78845578 -16.42944336 12.27392578 C-16.45006836 11.47212891 -16.47069336 10.67033203 -16.49194336 9.84423828 C-16.53115273 3.98243695 -16.53115273 3.98243695 -14.8737793 1.82177734 C-10.71610912 -1.36297405 -4.91662717 -0.51564848 0 0 Z M88.82055664 11.52392578 C87.818386 15.10720331 87.818386 15.10720331 88.82055664 18.52392578 C90.14055664 18.19392578 91.46055664 17.86392578 92.82055664 17.52392578 C92.82055664 15.54392578 92.82055664 13.56392578 92.82055664 11.52392578 C91.50055664 11.52392578 90.18055664 11.52392578 88.82055664 11.52392578 Z " fill="#000203" transform="translate(41.179443359375,100.47607421875)"/>
<path d="M0 0 C1.41249023 -0.04930664 1.41249023 -0.04930664 2.85351562 -0.09960938 C9.81436166 -0.15364558 9.81436166 -0.15364558 13.578125 2.8203125 C14.23296875 3.68398437 14.8878125 4.54765625 15.5625 5.4375 C16.325625 6.200625 17.08875 6.96375 17.875 7.75 C18.431875 8.306875 18.98875 8.86375 19.5625 9.4375 C19.90023437 8.87160156 20.23796875 8.30570312 20.5859375 7.72265625 C21.25496094 6.62244141 21.25496094 6.62244141 21.9375 5.5 C22.37835938 4.76910156 22.81921875 4.03820312 23.2734375 3.28515625 C24.5625 1.4375 24.5625 1.4375 26.5625 0.4375 C31.60755838 0.05674088 34.51754076 0.35055742 38.5625 3.4375 C40.2666054 5.06586738 41.94275441 6.72519752 43.5625 8.4375 C44.366875 7.633125 45.17125 6.82875 46 6 C47.1875 4.8125 48.375 3.625 49.5625 2.4375 C51.5425 2.4375 53.5225 2.4375 55.5625 2.4375 C55.5625 9.6975 55.5625 16.9575 55.5625 24.4375 C54.2425 24.4375 52.9225 24.4375 51.5625 24.4375 C50.9025 20.1475 50.2425 15.8575 49.5625 11.4375 C47.5825 14.4075 47.5825 14.4075 45.5625 17.4375 C41.31427626 16.96547514 39.36260291 14.47094482 36.5625 11.4375 C35.9025 15.7275 35.2425 20.0175 34.5625 24.4375 C33.2425 24.4375 31.9225 24.4375 30.5625 24.4375 C28.976631 21.265762 29.18383555 17.80236178 29 14.3125 C28.95681641 13.55839844 28.91363281 12.80429688 28.86914062 12.02734375 C28.7630168 10.16428112 28.66224999 8.30091476 28.5625 6.4375 C24.121755 12.34452873 21.72458035 17.11639378 20.5625 24.4375 C19.2425 24.4375 17.9225 24.4375 16.5625 24.4375 C16.47613281 23.880625 16.38976562 23.32375 16.30078125 22.75 C15.1944992 16.74156904 13.10136626 12.39461419 9.5625 7.4375 C7.5825 7.7675 5.6025 8.0975 3.5625 8.4375 C3.5625 7.7775 3.5625 7.1175 3.5625 6.4375 C-1.0575 6.4375 -5.6775 6.4375 -10.4375 6.4375 C-10.4375 7.7575 -10.4375 9.0775 -10.4375 10.4375 C-11.7575 10.4375 -13.0775 10.4375 -14.4375 10.4375 C-14.4375 7.7975 -14.4375 5.1575 -14.4375 2.4375 C-9.74134394 -0.26172718 -5.29675631 0.03249544 0 0 Z " fill="#139FBC" transform="translate(137.4375,102.5625)"/>
<path d="M0 0 C0 7.26 0 14.52 0 22 C-1.32 22 -2.64 22 -4 22 C-4.66 17.71 -5.32 13.42 -6 9 C-7.98 11.97 -7.98 11.97 -10 15 C-14.24822374 14.52797514 -16.19989709 12.03344482 -19 9 C-19.66 13.29 -20.32 17.58 -21 22 C-22.32 22 -23.64 22 -25 22 C-25.05404449 19.24973583 -25.09369306 16.50053797 -25.125 13.75 C-25.14175781 12.97269531 -25.15851563 12.19539063 -25.17578125 11.39453125 C-25.23662606 4.27568856 -25.23662606 4.27568856 -23 1 C-21.68 1.33 -20.36 1.66 -19 2 C-19 2.66 -19 3.32 -19 4 C-18.01 3.67 -17.02 3.34 -16 3 C-13.3125 4.4375 -13.3125 4.4375 -11 6 C-10.29875 5.01 -9.5975 4.02 -8.875 3 C-6.12193078 -0.88668596 -5.56444081 0 0 0 Z " fill="#16A1C0" transform="translate(193,105)"/>
<path d="M0 0 C5.28 0 10.56 0 16 0 C17.7680198 3.5360396 17.18464913 7.60571255 17.1875 11.5 C17.19974609 12.38042969 17.21199219 13.26085937 17.22460938 14.16796875 C17.22750977 15.43060547 17.22750977 15.43060547 17.23046875 16.71875 C17.23457764 17.49154297 17.23868652 18.26433594 17.24291992 19.06054688 C17 21 17 21 15 23 C12.41935871 23.14497985 9.95056116 23.18677545 7.375 23.125 C6.31539062 23.11146484 6.31539062 23.11146484 5.234375 23.09765625 C3.48943902 23.07407603 1.74467705 23.03820461 0 23 C0 21.35 0 19.7 0 18 C4.29 18 8.58 18 13 18 C13 16.68 13 15.36 13 14 C8.71 14 4.42 14 0 14 C0 12.35 0 10.7 0 9 C4.29 9 8.58 9 13 9 C13 7.68 13 6.36 13 5 C8.71 5 4.42 5 0 5 C0 3.35 0 1.7 0 0 Z " fill="#2A809D" transform="translate(28,104)"/>
<path d="M0 0 C7.59 0 15.18 0 23 0 C23 1.65 23 3.3 23 5 C20.03 5 17.06 5 14 5 C14 10.94 14 16.88 14 23 C12.35 23 10.7 23 9 23 C9 17.06 9 11.12 9 5 C6.03 5 3.06 5 0 5 C0 3.35 0 1.7 0 0 Z " fill="#5B5B5C" transform="translate(98,104)"/>
<path d="M0 0 C2.97 0 5.94 0 9 0 C9.08082094 1.95766281 9.13910778 3.91626728 9.1875 5.875 C9.23970703 7.51082031 9.23970703 7.51082031 9.29296875 9.1796875 C9.19628906 10.11039063 9.09960938 11.04109375 9 12 C5.1308371 14.57944193 1.9143521 14.25808937 -2.5625 14.1875 C-3.34302734 14.18685547 -4.12355469 14.18621094 -4.92773438 14.18554688 C-10.71884586 14.14057707 -10.71884586 14.14057707 -13 13 C-13 10.03 -13 7.06 -13 4 C-11.68 4 -10.36 4 -9 4 C-9 5.65 -9 7.3 -9 9 C-4.38 9 0.24 9 5 9 C5 7.68 5 6.36 5 5 C3.35 5 1.7 5 0 5 C0 3.35 0 1.7 0 0 Z " fill="#0F94C2" transform="translate(136,113)"/>
<path d="M0 0 C5.94 0 11.88 0 18 0 C18 1.65 18 3.3 18 5 C13.71 5 9.42 5 5 5 C5 7.97 5 10.94 5 14 C3.35 14 1.7 14 0 14 C0 9.38 0 4.76 0 0 Z " fill="#5D5D5D" transform="translate(70,113)"/>
<path d="M0 0 C5.28 0 10.56 0 16 0 C15.3892261 9.40591806 15.3892261 9.40591806 13.8125 11.8125 C11.25190661 13.49013015 9.34163409 13.29441061 6.3125 13.1875 C5.31863281 13.16042969 4.32476562 13.13335937 3.30078125 13.10546875 C2.54152344 13.07066406 1.78226563 13.03585938 1 13 C1 12.01 1 11.02 1 10 C4.96 10 8.92 10 13 10 C13 8.35 13 6.7 13 5 C8.71 5 4.42 5 0 5 C0 3.35 0 1.7 0 0 Z " fill="#21B8C5" transform="translate(28,104)"/>
<path d="M0 0 C6.93 0 13.86 0 21 0 C21 1.65 21 3.3 21 5 C14.07 5 7.14 5 0 5 C0 3.35 0 1.7 0 0 Z " fill="#89898A" transform="translate(70,104)"/>
<path d="M0 0 C6.6 0 13.2 0 20 0 C20 1.65 20 3.3 20 5 C13.4 5 6.8 5 0 5 C0 3.35 0 1.7 0 0 Z " fill="#2C6E86" transform="translate(48,122)"/>
<path d="M0 0 C0.83265381 0.00523682 1.66530762 0.01047363 2.52319336 0.01586914 C3.42231445 0.0190918 4.32143555 0.02231445 5.24780273 0.02563477 C6.66609375 0.03820312 6.66609375 0.03820312 8.11303711 0.05102539 C9.06243164 0.05553711 10.01182617 0.06004883 10.98999023 0.06469727 C13.34356776 0.07652429 15.69702188 0.09300514 18.05053711 0.11352539 C17.72053711 1.43352539 17.39053711 2.75352539 17.05053711 4.11352539 C11.77053711 4.11352539 6.49053711 4.11352539 1.05053711 4.11352539 C1.05053711 5.76352539 1.05053711 7.41352539 1.05053711 9.11352539 C-0.26946289 9.11352539 -1.58946289 9.11352539 -2.94946289 9.11352539 C-3.04711914 2.96118164 -3.04711914 2.96118164 -2.94946289 1.11352539 C-1.94946289 0.11352539 -1.94946289 0.11352539 0 0 Z " fill="#19C4D1" transform="translate(125.949462890625,103.886474609375)"/>
<path d="M0 0 C6.6 0 13.2 0 20 0 C20 1.65 20 3.3 20 5 C13.4 5 6.8 5 0 5 C0 3.35 0 1.7 0 0 Z " fill="#28B8BE" transform="translate(48,104)"/>
<path d="M0 0 C6.93 0 13.86 0 21 0 C21 0.99 21 1.98 21 3 C16.545 3.495 16.545 3.495 12 4 C12 6.97 12 9.94 12 13 C11.01 13 10.02 13 9 13 C9 9.7 9 6.4 9 3 C6.03 3 3.06 3 0 3 C0 2.01 0 1.02 0 0 Z " fill="#A7A7A8" transform="translate(99,105)"/>
<path d="M0 0 C1.32 0 2.64 0 4 0 C4 7.59 4 15.18 4 23 C2.68 23 1.36 23 0 23 C0 15.41 0 7.82 0 0 Z " fill="#949496" transform="translate(93,104)"/>
<path d="M0 0 C0.33 0.66 0.66 1.32 1 2 C0.67 2.66 0.34 3.32 0 4 C0.99 4.33 1.98 4.66 3 5 C1.35 7.64 -0.3 10.28 -2 13 C-7.14860706 11.71284823 -7.86461447 10.09341999 -11 6 C-9.68 6.33 -8.36 6.66 -7 7 C-6.67 6.01 -6.34 5.02 -6 4 C-4.66923011 3.65657551 -3.33568021 3.32380126 -2 3 C-1.34 2.01 -0.68 1.02 0 0 Z " fill="#12A0BD" transform="translate(185,107)"/>
<path d="M0 0 C0.33 0 0.66 0 1 0 C1 5.61 1 11.22 1 17 C0.01 17 -0.98 17 -2 17 C-2 15.35 -2 13.7 -2 12 C-6.62 12 -11.24 12 -16 12 C-16 10.35 -16 8.7 -16 7 C-11.71 7 -7.42 7 -3 7 C-3 7.33 -3 7.66 -3 8 C-6.96 8 -10.92 8 -15 8 C-15 8.99 -15 9.98 -15 11 C-13.20759337 10.88610125 -11.41605165 10.75852313 -9.625 10.625 C-8.62726562 10.55539063 -7.62953125 10.48578125 -6.6015625 10.4140625 C-3.84491121 10.23636036 -3.84491121 10.23636036 -2 8 C-1.32707499 6.03309626 -1.32707499 6.03309626 -0.875 3.875 C-0.58625 2.59625 -0.2975 1.3175 0 0 Z " fill="#2792A3" transform="translate(44,106)"/>
<path d="M0 0 C1.32 0 2.64 0 4 0 C4 1.65 4 3.3 4 5 C8.62 5 13.24 5 18 5 C18 5.33 18 5.66 18 6 C13.38 6.33 8.76 6.66 4 7 C6.83269666 8.41634833 9.47466438 8.3463005 12.625 8.5625 C13.81351563 8.64628906 15.00203125 8.73007813 16.2265625 8.81640625 C17.14179688 8.87699219 18.05703125 8.93757813 19 9 C19 9.33 19 9.66 19 10 C16.20826945 10.02690104 13.41679652 10.04679053 10.625 10.0625 C9.43390625 10.07506836 9.43390625 10.07506836 8.21875 10.08789062 C2.2265625 10.11328125 2.2265625 10.11328125 0 9 C0 6.03 0 3.06 0 0 Z " fill="#1D7595" transform="translate(123,117)"/>
<path d="M0 0 C3.84444522 0.32580044 5.72102664 0.88538543 8.6875 3.3125 C8.6875 4.3025 8.6875 5.2925 8.6875 6.3125 C8.0275 6.3125 7.3675 6.3125 6.6875 6.3125 C6.3575 5.6525 6.0275 4.9925 5.6875 4.3125 C4.6975 3.9825 3.7075 3.6525 2.6875 3.3125 C1.50718762 7.16091348 1.35514649 11.070779 1.125 15.0625 C1.08181641 15.75988281 1.03863281 16.45726563 0.99414062 17.17578125 C0.88860404 18.88781922 0.7876009 20.60013561 0.6875 22.3125 C0.3575 22.3125 0.0275 22.3125 -0.3125 22.3125 C-0.50671438 19.35446565 -0.69316186 16.39629837 -0.875 13.4375 C-0.93107422 12.59574219 -0.98714844 11.75398438 -1.04492188 10.88671875 C-1.09326172 10.08105469 -1.14160156 9.27539062 -1.19140625 8.4453125 C-1.2385376 7.70168457 -1.28566895 6.95805664 -1.33422852 6.19189453 C-1.3125 4.3125 -1.3125 4.3125 -0.3125 2.3125 C-1.9625 2.3125 -3.6125 2.3125 -5.3125 2.3125 C-3.3125 0.3125 -3.3125 0.3125 0 0 Z " fill="#1B8292" transform="translate(167.3125,102.6875)"/>
<path d="M0 0 C3.96 0 7.92 0 12 0 C12 1.65 12 3.3 12 5 C8.04 5 4.08 5 0 5 C0 3.35 0 1.7 0 0 Z " fill="#2199A9" transform="translate(52,113)"/>
<path d="M0 0 C3.125 -0.1875 3.125 -0.1875 6 0 C4.66511872 3.59391114 3.03977277 6.75490696 1 10 C-0.32 9.67 -1.64 9.34 -3 9 C-2.5020163 5.26512223 -2.12508244 3.18762365 0 0 Z " fill="#10B8CD" transform="translate(161,105)"/>
<path d="M0 0 C6.93 0 13.86 0 21 0 C20.34 0.66 19.68 1.32 19 2 C18.83312552 4.58354218 18.83312552 4.58354218 19 7 C17.35 7.33 15.7 7.66 14 8 C14 7.34 14 6.68 14 6 C9.38 6 4.76 6 0 6 C0 5.67 0 5.34 0 5 C5.28 5 10.56 5 16 5 C16 4.01 16 3.02 16 2 C10.72 1.67 5.44 1.34 0 1 C0 0.67 0 0.34 0 0 Z " fill="#1F8797" transform="translate(127,103)"/>
<path d="M0 0 C2.97 0 5.94 0 9 0 C9.36923077 5.53846154 9.36923077 5.53846154 7.5 7.875 C6.7575 8.431875 6.7575 8.431875 6 9 C6 7.68 6 6.36 6 5 C4.02 5 2.04 5 0 5 C0 3.35 0 1.7 0 0 Z " fill="#13A2BE" transform="translate(136,113)"/>
<path d="M0 0 C5.61 0 11.22 0 17 0 C17 0.99 17 1.98 17 3 C8.585 3.495 8.585 3.495 0 4 C0 2.68 0 1.36 0 0 Z " fill="#8C8E8D" transform="translate(71,114)"/>
<path d="M0 0 C2.375 0.3125 2.375 0.3125 5 1 C7 4 7 4 7 8 C5.25 8.75 5.25 8.75 3 9 C0.6875 7.375 0.6875 7.375 -1 5 C-0.75 2.25 -0.75 2.25 0 0 Z " fill="#1BBBCA" transform="translate(146,104)"/>
<path d="M0 0 C1.98 0.495 1.98 0.495 4 1 C4 1.66 4 2.32 4 3 C4.66 3 5.32 3 6 3 C6 3.66 6 4.32 6 5 C4.68 5 3.36 5 2 5 C1.67 7.31 1.34 9.62 1 12 C0.34 12 -0.32 12 -1 12 C-1.02698189 10.37509046 -1.04638757 8.75005367 -1.0625 7.125 C-1.07410156 6.22007813 -1.08570313 5.31515625 -1.09765625 4.3828125 C-1 2 -1 2 0 0 Z " fill="#09C1DC" transform="translate(170,106)"/>
<path d="M0 0 C0.33 0 0.66 0 1 0 C1.02691685 2.45840605 1.04679802 4.91651882 1.0625 7.375 C1.07087891 8.07367188 1.07925781 8.77234375 1.08789062 9.4921875 C1.11328125 14.7734375 1.11328125 14.7734375 0 17 C-0.99 17 -1.98 17 -3 17 C-3 14.36 -3 11.72 -3 9 C-2.01 9 -1.02 9 0 9 C0 6.03 0 3.06 0 0 Z " fill="#717172" transform="translate(111,109)"/>
<path d="M0 0 C0.33 0 0.66 0 1 0 C1 3.96 1 7.92 1 12 C-0.32 12 -1.64 12 -3 12 C-3 9.03 -3 6.06 -3 3 C-2.01 3 -1.02 3 0 3 C0 2.01 0 1.02 0 0 Z " fill="#7A7A7A" transform="translate(96,115)"/>
<path d="M0 0 C4.62 0 9.24 0 14 0 C14 0.66 14 1.32 14 2 C10.84493858 2.93619813 8.03413498 3.1057123 4.75 3.0625 C3.85796875 3.05347656 2.9659375 3.04445313 2.046875 3.03515625 C1.37140625 3.02355469 0.6959375 3.01195313 0 3 C0 2.01 0 1.02 0 0 Z " fill="#2B93B7" transform="translate(48,123)"/>
<path d="M0 0 C0.33 0 0.66 0 1 0 C1 1.65 1 3.3 1 5 C1.99 5 2.98 5 4 5 C3.67 5.99 3.34 6.98 3 8 C2.01 7.67 1.02 7.34 0 7 C0 6.34 0 5.68 0 5 C-4.29 5 -8.58 5 -13 5 C-13 4.67 -13 4.34 -13 4 C-8.71 4 -4.42 4 0 4 C0 2.68 0 1.36 0 0 Z " fill="#2B728A" transform="translate(41,118)"/>
<path d="M0 0 C1.98 0 3.96 0 6 0 C5.34 1.65 4.68 3.3 4 5 C2.35 4.67 0.7 4.34 -1 4 C-0.67 2.68 -0.34 1.36 0 0 Z " fill="#1FBDC8" transform="translate(161,105)"/>
<path d="M0 0 C0.66 0.33 1.32 0.66 2 1 C2 3.31 2 5.62 2 8 C1.01 8 0.02 8 -1 8 C-1.04241723 5.66705225 -1.04092937 3.33297433 -1 1 C-0.67 0.67 -0.34 0.34 0 0 Z " fill="#909092" transform="translate(109,110)"/>
<path d="M0 0 C0.99 0.66 1.98 1.32 3 2 C2.67 3.65 2.34 5.3 2 7 C0.68 6.34 -0.64 5.68 -2 5 C-2 4.34 -2 3.68 -2 3 C-1.34 3 -0.68 3 0 3 C0 2.01 0 1.02 0 0 Z " fill="#12B3CA" transform="translate(176,108)"/>
<path d="M0 0 C1.65 0 3.3 0 5 0 C4.67 1.65 4.34 3.3 4 5 C1.525 4.01 1.525 4.01 -1 3 C-0.67 2.01 -0.34 1.02 0 0 Z " fill="#13D9E9" transform="translate(188,105)"/>
<path d="M0 0 C1.32 1.65 2.64 3.3 4 5 C3.34 5.66 2.68 6.32 2 7 C-0.125 6.625 -0.125 6.625 -2 6 C-1.34 4.02 -0.68 2.04 0 0 Z " fill="#18BFD4" transform="translate(187,105)"/>
<path d="M0 0 C1.9375 0.3125 1.9375 0.3125 4 1 C4.33 1.99 4.66 2.98 5 4 C3.02 4 1.04 4 -1 4 C-0.67 2.68 -0.34 1.36 0 0 Z " fill="#0BD6EA" transform="translate(170,106)"/>
<path d="M0 0 C0.33 0 0.66 0 1 0 C1 1.98 1 3.96 1 6 C-0.32 6 -1.64 6 -3 6 C-2.67 4.68 -2.34 3.36 -2 2 C-1.34 2 -0.68 2 0 2 C0 1.34 0 0.68 0 0 Z " fill="#666667" transform="translate(96,121)"/>
</svg>
