<?xml version="1.0" encoding="UTF-8"?>
<svg version="1.1" xmlns="http://www.w3.org/2000/svg" width="225" height="225">
<path d="M0 0 C74.25 0 148.5 0 225 0 C225 74.25 225 148.5 225 225 C150.75 225 76.5 225 0 225 C0 150.75 0 76.5 0 0 Z " fill="#010101" transform="translate(0,0)"/>
<path d="M0 0 C1.08539063 -0.05800781 2.17078125 -0.11601563 3.2890625 -0.17578125 C11.19767759 -0.30146829 11.19767759 -0.30146829 14.28320312 2.41503906 C15.890625 4.6015625 15.890625 4.6015625 17.17285156 6.79931641 C18.12338056 8.78797913 18.12338056 8.78797913 20.25 9.625 C20.4975 9.068125 20.745 8.51125 21 7.9375 C23.72368421 2.89868421 23.72368421 2.89868421 26.25 0.625 C29.78569058 -0.31908492 32.72055864 -0.35630397 36.25 0.625 C38.51408032 2.53311888 40.1439671 4.47818522 41.875 6.875 C42.32875 7.4525 42.7825 8.03 43.25 8.625 C43.91 8.625 44.57 8.625 45.25 8.625 C46.77592327 6.87085947 48.1367152 5.02471994 49.51953125 3.15625 C51.25 1.625 51.25 1.625 56.25 1.625 C56.25 8.885 56.25 16.145 56.25 23.625 C54.93 23.625 53.61 23.625 52.25 23.625 C51.755 16.2 51.755 16.2 51.25 8.625 C49.27 11.265 47.29 13.905 45.25 16.625 C40.71213776 14.35606888 39.30321843 12.52633466 36.25 8.625 C35.92 13.575 35.59 18.525 35.25 23.625 C33.93 23.625 32.61 23.625 31.25 23.625 C30.92 17.025 30.59 10.425 30.25 3.625 C23.0111075 12.62616039 23.0111075 12.62616039 21.25 23.625 C19.93 23.625 18.61 23.625 17.25 23.625 C17.229375 22.34625 17.20875 21.0675 17.1875 19.75 C16.55636476 13.54712394 13.04529072 9.37159074 9.25 4.625 C8.92 5.615 8.59 6.605 8.25 7.625 C6.93 7.625 5.61 7.625 4.25 7.625 C4.25 6.965 4.25 6.305 4.25 5.625 C-0.37 5.625 -4.99 5.625 -9.75 5.625 C-9.75 6.945 -9.75 8.265 -9.75 9.625 C-11.07 9.625 -12.39 9.625 -13.75 9.625 C-13.875 6.25 -13.875 6.25 -13.75 2.625 C-10.18352327 -0.94147673 -4.82959725 0.08482899 0 0 Z " fill="#14A4C3" transform="translate(136.75,103.375)"/>
<path d="M0 0 C2.45862401 -0.05383848 4.9160755 -0.09359038 7.375 -0.125 C8.42300781 -0.15013672 8.42300781 -0.15013672 9.4921875 -0.17578125 C11.32897486 -0.19344267 13.16601963 -0.10303261 15 0 C17.40829792 2.40829792 17.25602579 2.99283556 17.265625 6.28125 C17.26949219 7.54388672 17.26949219 7.54388672 17.2734375 8.83203125 C17.26570313 9.71246094 17.25796875 10.59289062 17.25 11.5 C17.25773437 12.38042969 17.26546875 13.26085937 17.2734375 14.16796875 C17.27085938 15.00972656 17.26828125 15.85148437 17.265625 16.71875 C17.26336914 17.49154297 17.26111328 18.26433594 17.25878906 19.06054688 C17 21 17 21 15 23 C12.41935871 23.14497985 9.95056116 23.18677545 7.375 23.125 C6.31539062 23.11146484 6.31539062 23.11146484 5.234375 23.09765625 C3.48943902 23.07407603 1.74467705 23.03820461 0 23 C0 21.35 0 19.7 0 18 C4.29 18 8.58 18 13 18 C13 16.68 13 15.36 13 14 C8.71 14 4.42 14 0 14 C0 12.35 0 10.7 0 9 C4.29 9 8.58 9 13 9 C13 7.68 13 6.36 13 5 C8.71 5 4.42 5 0 5 C0 3.35 0 1.7 0 0 Z " fill="#2A819E" transform="translate(28,104)"/>
<path d="M0 0 C0 7.26 0 14.52 0 22 C-1.32 22 -2.64 22 -4 22 C-4.33 17.05 -4.66 12.1 -5 7 C-6.98 9.64 -8.96 12.28 -11 15 C-15.53786224 12.73106888 -16.94678157 10.90133466 -20 7 C-20.66 8.98 -21.32 10.96 -22 13 C-22.66 13 -23.32 13 -24 13 C-24 9.7 -24 6.4 -24 3 C-22.68 2.34 -21.36 1.68 -20 1 C-19.67 1.99 -19.34 2.98 -19 4 C-17.14255793 4.61067144 -17.14255793 4.61067144 -15 5 C-13.65651065 5.64595557 -12.32149443 6.31016328 -11 7 C-10.43732422 6.24203125 -10.43732422 6.24203125 -9.86328125 5.46875 C-9.35152344 4.8190625 -8.83976563 4.169375 -8.3125 3.5 C-7.81363281 2.8503125 -7.31476563 2.200625 -6.80078125 1.53125 C-5 0 -5 0 0 0 Z " fill="#14A7C6" transform="translate(193,105)"/>
<path d="M0 0 C7.59 0 15.18 0 23 0 C23 1.65 23 3.3 23 5 C20.03 5 17.06 5 14 5 C14 10.94 14 16.88 14 23 C12.35 23 10.7 23 9 23 C9 17.06 9 11.12 9 5 C6.03 5 3.06 5 0 5 C0 3.35 0 1.7 0 0 Z " fill="#59595A" transform="translate(98,104)"/>
<path d="M0 0 C2.97 0 5.94 0 9 0 C9.08114106 1.77007714 9.13925505 3.54122098 9.1875 5.3125 C9.23970703 6.79169922 9.23970703 6.79169922 9.29296875 8.30078125 C9 11 9 11 7.98828125 12.8359375 C4.82662026 14.68696889 1.55448562 14.39155884 -2 14.3125 C-2.72445312 14.31572266 -3.44890625 14.31894531 -4.1953125 14.32226562 C-7.9807029 14.28385299 -9.78295894 14.14469404 -13 12 C-13.40843923 9.28796348 -13.13336867 6.7562858 -13 4 C-11.68 4 -10.36 4 -9 4 C-9 5.65 -9 7.3 -9 9 C-4.38 9 0.24 9 5 9 C5 7.68 5 6.36 5 5 C3.35 5 1.7 5 0 5 C0 3.35 0 1.7 0 0 Z " fill="#0F98C7" transform="translate(136,113)"/>
<path d="M0 0 C5.94 0 11.88 0 18 0 C18 1.65 18 3.3 18 5 C13.71 5 9.42 5 5 5 C5 7.97 5 10.94 5 14 C3.35 14 1.7 14 0 14 C0 9.38 0 4.76 0 0 Z " fill="#5D5D5D" transform="translate(70,113)"/>
<path d="M0 0 C2.47923801 -0.02685095 4.9581884 -0.04676547 7.4375 -0.0625 C8.14455078 -0.07087891 8.85160156 -0.07925781 9.58007812 -0.08789062 C11.38693559 -0.09653588 13.19387603 -0.05220011 15 0 C16.57897833 1.57897833 16.24543509 3.19362572 16.3125 5.375 C16.34988281 6.16648437 16.38726562 6.95796875 16.42578125 7.7734375 C16 10 16 10 14.33984375 11.77734375 C11.444147 13.29045407 9.49876815 13.30352743 6.25 13.1875 C5.26515625 13.16042969 4.2803125 13.13335937 3.265625 13.10546875 C2.51796875 13.07066406 1.7703125 13.03585938 1 13 C1 12.01 1 11.02 1 10 C4.96 10 8.92 10 13 10 C13 8.35 13 6.7 13 5 C8.71 5 4.42 5 0 5 C0 3.35 0 1.7 0 0 Z " fill="#23BAC4" transform="translate(28,104)"/>
<path d="M0 0 C6.93 0 13.86 0 21 0 C21 1.65 21 3.3 21 5 C14.07 5 7.14 5 0 5 C0 3.35 0 1.7 0 0 Z " fill="#89898A" transform="translate(70,104)"/>
<path d="M0 0 C6.6 0 13.2 0 20 0 C20 1.65 20 3.3 20 5 C13.4 5 6.8 5 0 5 C0 3.35 0 1.7 0 0 Z " fill="#2D6E85" transform="translate(48,122)"/>
<path d="M0 0 C6.6 0 13.2 0 20 0 C20 1.65 20 3.3 20 5 C13.4 5 6.8 5 0 5 C0 3.35 0 1.7 0 0 Z " fill="#28B8BE" transform="translate(48,104)"/>
<path d="M0 0 C1.57043101 0.01330874 3.14079971 0.03717648 4.7109375 0.0703125 C5.51273438 0.07933594 6.31453125 0.08835937 7.140625 0.09765625 C9.12252273 0.12125027 11.10426731 0.15712185 13.0859375 0.1953125 C13.4159375 1.5153125 13.7459375 2.8353125 14.0859375 4.1953125 C8.8059375 4.1953125 3.5259375 4.1953125 -1.9140625 4.1953125 C-1.9140625 5.8453125 -1.9140625 7.4953125 -1.9140625 9.1953125 C-3.2340625 9.1953125 -4.5540625 9.1953125 -5.9140625 9.1953125 C-6.0390625 5.8203125 -6.0390625 5.8203125 -5.9140625 2.1953125 C-3.9140625 0.1953125 -3.9140625 0.1953125 0 0 Z " fill="#1AC7D4" transform="translate(128.9140625,103.8046875)"/>
<path d="M0 0 C6.93 0 13.86 0 21 0 C21 0.99 21 1.98 21 3 C18.36 3.33 15.72 3.66 13 4 C12.67 6.97 12.34 9.94 12 13 C11.01 13 10.02 13 9 13 C9 9.7 9 6.4 9 3 C6.03 3 3.06 3 0 3 C0 2.01 0 1.02 0 0 Z " fill="#A8A8A9" transform="translate(99,105)"/>
<path d="M0 0 C1.32 0 2.64 0 4 0 C4 7.59 4 15.18 4 23 C2.68 23 1.36 23 0 23 C0 15.41 0 7.82 0 0 Z " fill="#949496" transform="translate(93,104)"/>
<path d="M0 0 C3.37885612 -0.28526928 6.63291991 -0.46087248 10 0 C12.125 2.5 12.125 2.5 13 5 C12.34 5 11.68 5 11 5 C10.67 4.34 10.34 3.68 10 3 C9.01 3.33 8.02 3.66 7 4 C6.67 7.3 6.34 10.6 6 14 C6.66 14 7.32 14 8 14 C8.33 12.68 8.66 11.36 9 10 C9 14.29 9 18.58 9 23 C7.68 23 6.36 23 5 23 C4.67 16.07 4.34 9.14 4 2 C2.68 1.34 1.36 0.68 0 0 Z " fill="#2699A9" transform="translate(163,104)"/>
<path d="M0 0 C2.1875 -0.4375 2.1875 -0.4375 5 0 C6.98441782 2.13995327 8.5023304 4.50175965 10 7 C9.01 7.33 8.02 7.66 7 8 C6.67 8.66 6.34 9.32 6 10 C4.68 8.02 3.36 6.04 2 4 C1.67 4.99 1.34 5.98 1 7 C-0.32 7 -1.64 7 -3 7 C-3 6.34 -3 5.68 -3 5 C-7.62 5 -12.24 5 -17 5 C-17 4.67 -17 4.34 -17 4 C-11.72 4 -6.44 4 -1 4 C-0.67 2.68 -0.34 1.36 0 0 Z " fill="#1DC5D4" transform="translate(144,104)"/>
<path d="M0 0 C0.33 0 0.66 0 1 0 C1 5.61 1 11.22 1 17 C0.01 17 -0.98 17 -2 17 C-2 15.35 -2 13.7 -2 12 C-6.62 12 -11.24 12 -16 12 C-16 10.35 -16 8.7 -16 7 C-11.71 7 -7.42 7 -3 7 C-3 7.33 -3 7.66 -3 8 C-6.96 8 -10.92 8 -15 8 C-15 8.99 -15 9.98 -15 11 C-11.37 11 -7.74 11 -4 11 C-3.67 10.34 -3.34 9.68 -3 9 C-2.34 8.34 -1.68 7.68 -1 7 C-0.59952556 4.67724823 -0.2602896 2.34260643 0 0 Z " fill="#2892A3" transform="translate(44,106)"/>
<path d="M0 0 C1.32 0 2.64 0 4 0 C4 1.65 4 3.3 4 5 C8.62 5 13.24 5 18 5 C18 5.33 18 5.66 18 6 C13.05 6 8.1 6 3 6 C3.33 6.66 3.66 7.32 4 8 C6.54941373 8.31241371 9.00361513 8.51303421 11.5625 8.625 C12.62887695 8.68300781 12.62887695 8.68300781 13.71679688 8.7421875 C15.47742425 8.83671783 17.23867728 8.91945817 19 9 C19 9.33 19 9.66 19 10 C16.39555652 10.05394705 13.79223002 10.09364469 11.1875 10.125 C10.44951172 10.14175781 9.71152344 10.15851563 8.95117188 10.17578125 C5.08753574 10.21074628 3.29096332 10.19397555 0 8 C-0.40843923 5.28796348 -0.13336867 2.7562858 0 0 Z " fill="#1E7797" transform="translate(123,117)"/>
<path d="M0 0 C3.96 0 7.92 0 12 0 C12 1.65 12 3.3 12 5 C8.04 5 4.08 5 0 5 C0 3.35 0 1.7 0 0 Z " fill="#2199A9" transform="translate(52,113)"/>
<path d="M0 0 C5.61 0 11.22 0 17 0 C17 0.99 17 1.98 17 3 C11.72 3 6.44 3 1 3 C0.67 3.66 0.34 4.32 0 5 C0 3.35 0 1.7 0 0 Z " fill="#8D8F8E" transform="translate(71,114)"/>
<path d="M0 0 C2.97 0 5.94 0 9 0 C8.4140625 6.15234375 8.4140625 6.15234375 8 8 C7.01 8.495 7.01 8.495 6 9 C6 7.68 6 6.36 6 5 C4.02 5 2.04 5 0 5 C0 3.35 0 1.7 0 0 Z " fill="#14A3BE" transform="translate(136,113)"/>
<path d="M0 0 C1.65 0 3.3 0 5 0 C3.63312778 3.98671063 1.84804907 6.88494633 -1 10 C-1.66 10 -2.32 10 -3 10 C-4 7 -4 7 -3.22265625 5.17578125 C-2.1484375 3.45052083 -1.07421875 1.72526042 0 0 Z " fill="#11C1D6" transform="translate(162,105)"/>
<path d="M0 0 C0.99 0.33 1.98 0.66 3 1 C3 1.66 3 2.32 3 3 C3.66 3 4.32 3 5 3 C5 3.66 5 4.32 5 5 C3.68 5 2.36 5 1 5 C0.67 7.31 0.34 9.62 0 12 C-0.66 12 -1.32 12 -2 12 C-2.05395478 10.37536158 -2.09277195 8.75021459 -2.125 7.125 C-2.14820313 6.22007813 -2.17140625 5.31515625 -2.1953125 4.3828125 C-2 2 -2 2 0 0 Z " fill="#09C2DD" transform="translate(171,106)"/>
<path d="M0 0 C0.33 0 0.66 0 1 0 C1 3.96 1 7.92 1 12 C-0.32 12 -1.64 12 -3 12 C-3 9.03 -3 6.06 -3 3 C-2.01 3 -1.02 3 0 3 C0 2.01 0 1.02 0 0 Z " fill="#7B7B7B" transform="translate(96,115)"/>
<path d="M0 0 C4.62 0 9.24 0 14 0 C14 0.66 14 1.32 14 2 C9.32798795 3.20568053 4.78503708 3.09382426 0 3 C0 2.01 0 1.02 0 0 Z " fill="#2C94B8" transform="translate(48,123)"/>
<path d="M0 0 C1.65 0 3.3 0 5 0 C3.68 0.33 2.36 0.66 1 1 C1 2.98 1 4.96 1 7 C-0.32 7 -1.64 7 -3 7 C-3 6.34 -3 5.68 -3 5 C-7.62 5 -12.24 5 -17 5 C-17 4.67 -17 4.34 -17 4 C-11.72 4 -6.44 4 -1 4 C-0.67 2.68 -0.34 1.36 0 0 Z " fill="#2B909C" transform="translate(144,104)"/>
<path d="M0 0 C0.33 0 0.66 0 1 0 C1.10477512 5.78591511 0.99250545 11.29309366 0 17 C-0.99 17 -1.98 17 -3 17 C-3 14.36 -3 11.72 -3 9 C-2.01 9 -1.02 9 0 9 C0 6.03 0 3.06 0 0 Z " fill="#737374" transform="translate(111,109)"/>
<path d="M0 0 C3.3 0 6.6 0 10 0 C10.33 0.99 10.66 1.98 11 3 C7.37 3 3.74 3 0 3 C0 2.01 0 1.02 0 0 Z " fill="#1FB8CF" transform="translate(29,114)"/>
<path d="M0 0 C0.33 0 0.66 0 1 0 C1 3.96 1 7.92 1 12 C0.01 12 -0.98 12 -2 12 C-2 9.36 -2 6.72 -2 4 C-1.34 4 -0.68 4 0 4 C0 2.68 0 1.36 0 0 Z " fill="#16A4CC" transform="translate(171,114)"/>
<path d="M0 0 C0.33 0 0.66 0 1 0 C1 1.65 1 3.3 1 5 C1.99 5 2.98 5 4 5 C3.67 5.99 3.34 6.98 3 8 C2.01 7.67 1.02 7.34 0 7 C0 6.34 0 5.68 0 5 C-4.29 5 -8.58 5 -13 5 C-13 4.67 -13 4.34 -13 4 C-8.71 4 -4.42 4 0 4 C0 2.68 0 1.36 0 0 Z " fill="#2C728A" transform="translate(41,118)"/>
<path d="M0 0 C1.65 0 3.3 0 5 0 C4.67 1.65 4.34 3.3 4 5 C1.525 4.01 1.525 4.01 -1 3 C-0.67 2.01 -0.34 1.02 0 0 Z " fill="#14DDEC" transform="translate(188,105)"/>
<path d="M0 0 C0.66 0.33 1.32 0.66 2 1 C2 3.31 2 5.62 2 8 C1.01 8 0.02 8 -1 8 C-1.125 2.25 -1.125 2.25 0 0 Z " fill="#909092" transform="translate(109,110)"/>
<path d="M0 0 C0.99 0.66 1.98 1.32 3 2 C2.67 3.32 2.34 4.64 2 6 C0.35 5.01 -1.3 4.02 -3 3 C-2.01 2.67 -1.02 2.34 0 2 C0 1.34 0 0.68 0 0 Z " fill="#13BACE" transform="translate(176,109)"/>
<path d="M0 0 C1.65 0 3.3 0 5 0 C4.34 1.65 3.68 3.3 3 5 C1.35 4.67 -0.3 4.34 -2 4 C-1.34 2.68 -0.68 1.36 0 0 Z " fill="#24C5CE" transform="translate(162,105)"/>
<path d="M0 0 C1.32 0.66 2.64 1.32 4 2 C4 3.65 4 5.3 4 7 C3.67 6.01 3.34 5.02 3 4 C1.68 4 0.36 4 -1 4 C-0.67 2.68 -0.34 1.36 0 0 Z " fill="#1CC8DB" transform="translate(186,107)"/>
<path d="M0 0 C0.99 0.33 1.98 0.66 3 1 C3 1.66 3 2.32 3 3 C3.66 3.33 4.32 3.66 5 4 C2.69 4 0.38 4 -2 4 C-1.34 2.68 -0.68 1.36 0 0 Z " fill="#0BDCEF" transform="translate(171,106)"/>
<path d="M0 0 C0.33 0 0.66 0 1 0 C1 1.98 1 3.96 1 6 C-0.32 6 -1.64 6 -3 6 C-2.67 4.68 -2.34 3.36 -2 2 C-1.34 2 -0.68 2 0 2 C0 1.34 0 0.68 0 0 Z " fill="#656566" transform="translate(96,121)"/>
</svg>
